HIERARCHY
ROOT Hips
{
 OFFSET 0.000000 0.000000 0.000000
 CHANNELS 6 Xposition Yposition Zposition Yrotation Xrotation Zrotation
 JOINT Chest
 {
  OFFSET 0.000000 9.585900 0.002600
  CHANNELS 3 Yrotation Xrotation Zrotation
  JOINT Chest2
  {
   OFFSET 0.000000 9.601200 -0.005300
   CHANNELS 3 Yrotation Xrotation Zrotation
   JOINT Chest3
   {
    OFFSET 0.000000 9.561800 0.000000
    CHANNELS 3 Yrotation Xrotation Zrotation
    JOINT Chest4
    {
     OFFSET 0.000000 9.552100 0.000000
     CHANNELS 3 Yrotation Xrotation Zrotation
     JOINT Neck
     {
      OFFSET 0.000000 14.453000 0.000000
      CHANNELS 3 Yrotation Xrotation Zrotation
      JOINT Head
      {
       OFFSET 0.000000 8.936500 -0.011300
       CHANNELS 3 Yrotation Xrotation Zrotation
       End Site
       {
        OFFSET 0.000000 17.073600 -0.006000
       }
      }
     }
     JOINT RightCollar
     {
      OFFSET -2.921100 9.558500 0.000000
      CHANNELS 3 Yrotation Xrotation Zrotation
      JOINT RightShoulder
      {
       OFFSET -13.519700 0.000000 0.000000
       CHANNELS 3 Yrotation Xrotation Zrotation
       JOINT RightElbow
       {
        OFFSET 0.000000 -29.696600 0.000000
        CHANNELS 3 Yrotation Xrotation Zrotation
        JOINT RightWrist
        {
         OFFSET 0.000000 -24.004700 0.000000
         CHANNELS 3 Yrotation Xrotation Zrotation
         End Site
         {
          OFFSET 0.000000 -17.728500 0.000000
         }
        }
       }
      }
     }
     JOINT LeftCollar
     {
      OFFSET 2.921100 9.558500 0.000000
      CHANNELS 3 Yrotation Xrotation Zrotation
      JOINT LeftShoulder
      {
       OFFSET 13.519700 0.000000 0.000000
       CHANNELS 3 Yrotation Xrotation Zrotation
       JOINT LeftElbow
       {
        OFFSET 0.000000 -29.696600 0.000000
        CHANNELS 3 Yrotation Xrotation Zrotation
        JOINT LeftWrist
        {
         OFFSET 0.000000 -24.004700 0.000000
         CHANNELS 3 Yrotation Xrotation Zrotation
         End Site
         {
          OFFSET 0.000000 -17.728500 0.000000
         }
        }
       }
      }
     }
    }
   }
  }
 }
 JOINT RightHip
 {
  OFFSET -7.771700 -0.012900 -0.001300
  CHANNELS 3 Yrotation Xrotation Zrotation
  JOINT RightKnee
  {
   OFFSET 0.000000 -40.869800 0.001200
   CHANNELS 3 Yrotation Xrotation Zrotation
   JOINT RightAnkle
   {
    OFFSET 0.000000 -39.717900 0.002100
    CHANNELS 3 Yrotation Xrotation Zrotation
    JOINT RightToe
    {
     OFFSET 0.000000 -4.965400 11.033500
     CHANNELS 3 Yrotation Xrotation Zrotation
     End Site
     {
      OFFSET 0.000000 -1.423100 5.872300
     }
    }
   }
  }
 }
 JOINT LeftHip
 {
  OFFSET 7.771700 -0.012900 -0.001300
  CHANNELS 3 Yrotation Xrotation Zrotation
  JOINT LeftKnee
  {
   OFFSET 0.000000 -40.869800 0.001200
   CHANNELS 3 Yrotation Xrotation Zrotation
   JOINT LeftAnkle
   {
    OFFSET 0.000000 -39.717900 0.002100
    CHANNELS 3 Yrotation Xrotation Zrotation
    JOINT LeftToe
    {
     OFFSET 0.000000 -4.965400 11.033500
     CHANNELS 3 Yrotation Xrotation Zrotation
     End Site
     {
      OFFSET 0.000000 -1.423100 5.872300
     }
    }
   }
  }
 }
}
MOTION
Frames: 12
Frame Time: 0.008333
-229.674493 57.673110 23.612910 174.009537 -51.330820 -2.681433 3.559970 22.783936 3.445314 1.825901 13.037203 1.771612 2.353957 16.301478 2.292669 1.826119 13.041353 1.770898 1.575465 19.174014 2.895092 1.936190 -0.181089 4.806910 3.081597 2.023364 0.444977 1.524892 -15.910539 -11.253493 -27.183674 -15.799854 90.855382 -10.292824 -10.520924 -34.851226 -9.229444 1.814158 0.029955 11.496196 -16.616262 -0.030024 174.401370 -74.252379 171.561082 -21.095297 -17.874238 32.821005 6.936524 -20.687332 -0.535769 -42.877428 72.312038 -46.469445 4.026833 -13.514126 12.156353 -0.021084 -0.015422 0.001197 -9.622391 -18.152463 9.004171 54.438220 81.548424 55.925341 0.009365 -18.124227 -22.644407 0.006400 0.019725 0.003217
-229.675912 57.673017 23.612969 174.008055 -51.322026 -2.676978 3.557569 22.779550 3.439725 1.821502 13.041685 1.769043 2.356473 16.297320 2.292317 1.815845 13.052127 1.763343 1.569271 19.169980 2.896325 1.916342 -0.176889 4.805093 3.106474 2.018881 0.437594 1.507972 -15.914067 -11.239683 -27.180922 -15.805422 90.852685 -10.314358 -10.507922 -34.857444 -9.228239 1.810061 0.035424 11.511375 -16.609415 -0.028568 174.298757 -74.282735 171.643017 -21.124183 -17.897573 32.842980 6.944563 -20.697382 -0.539683 -42.892539 72.316207 -46.481395 4.009842 -13.516561 12.149343 -0.014414 -0.014960 0.008720 -9.621494 -18.161720 9.002796 54.414297 81.550500 55.898769 0.014016 -18.122681 -22.638885 0.012907 0.018033 0.000498
-229.677048 57.672818 23.613006 174.007878 -51.312155 -2.675980 3.556189 22.773809 3.437028 1.820377 13.044968 1.766598 2.351299 16.305334 2.286384 1.819808 13.044785 1.765607 1.542708 19.178805 2.889701 1.907465 -0.178026 4.804823 3.117473 2.014075 0.434955 1.496637 -15.910311 -11.233294 -27.176238 -15.809858 90.850962 -10.322631 -10.499318 -34.863064 -9.247410 1.809046 0.034371 11.535008 -16.604160 -0.023789 174.186572 -74.315050 171.733863 -21.063660 -17.855383 32.785948 6.950474 -20.709129 -0.542765 -42.895693 72.322218 -46.479978 4.000938 -13.517095 12.147042 -0.013690 -0.015893 0.009410 -9.621738 -18.171426 9.004022 54.426952 81.541181 55.908351 0.004493 -18.119600 -22.631928 0.011045 0.016074 -0.000975
-229.678015 57.672618 23.612913 174.007497 -51.301898 -2.675637 3.553632 22.782196 3.430639 1.818721 13.044538 1.764507 2.353747 16.295884 2.287626 1.818761 13.044503 1.764556 1.544981 19.173341 2.889995 1.870631 -0.167114 4.805908 3.127739 2.010589 0.431523 1.486968 -15.904781 -11.223773 -27.161597 -15.816518 90.838250 -10.326953 -10.502215 -34.859210 -9.244578 1.802244 0.035677 11.537932 -16.601471 -0.021912 174.065491 -74.354781 171.832655 -21.062205 -17.857457 32.773478 6.953432 -20.722127 -0.543044 -42.895721 72.327619 -46.478909 3.989622 -13.515248 12.146437 -0.013022 -0.017554 0.009294 -9.622409 -18.181549 9.005762 54.437939 81.538734 55.916955 0.003133 -18.119858 -22.627669 0.009720 0.016402 -0.002541
-229.678945 57.672321 23.612736 174.006363 -51.290412 -2.674077 3.552054 22.779718 3.428923 1.817519 13.044067 1.763116 2.353068 16.294147 2.285744 1.816787 13.045220 1.763566 1.530825 19.176421 2.885752 1.847724 -0.164872 4.803705 3.135624 2.007953 0.428509 1.480298 -15.896591 -11.214415 -27.157307 -15.826207 90.828061 -10.326930 -10.501549 -34.851347 -9.252837 1.801086 0.034802 11.546292 -16.591867 -0.018534 173.953622 -74.383211 171.923111 -21.074531 -17.866880 32.777541 6.958517 -20.735271 -0.549050 -42.891610 72.332464 -46.472282 4.001218 -13.517696 12.147491 -0.011512 -0.019314 0.004698 -9.625498 -18.194236 9.010234 54.432955 81.542432 55.906476 0.006607 -18.117798 -22.623700 0.009474 0.015469 -0.003282
-229.679329 57.672549 23.612032 174.002434 -51.282305 -2.672166 3.551733 22.779099 3.430469 1.816199 13.042802 1.761875 2.351391 16.292564 2.284082 1.815461 13.043960 1.762277 1.515943 19.183837 2.880155 1.826396 -0.165999 4.797579 3.142020 2.006775 0.425684 1.477957 -15.893327 -11.211854 -27.153314 -15.824051 90.805904 -10.329987 -10.495668 -34.837482 -9.264634 1.807878 0.033370 11.565395 -16.564817 -0.012185 173.816934 -74.386385 172.030435 -21.047465 -17.850576 32.752530 6.967682 -20.743357 -0.546003 -42.900684 72.329970 -46.478129 3.989858 -13.517845 12.152687 -0.010765 -0.017956 0.001780 -9.620721 -18.201818 9.018156 54.388325 81.549862 55.862116 0.010369 -18.116992 -22.621164 0.011923 0.013662 -0.000134
-229.679056 57.673445 23.610675 173.999920 -51.278492 -2.673864 3.552007 22.779888 3.435048 1.812464 13.042295 1.760766 2.348148 16.290751 2.282569 1.814395 13.040381 1.760694 1.485905 19.190146 2.870111 1.823557 -0.162832 4.786458 3.156434 2.014535 0.419181 1.469479 -15.894545 -11.207532 -27.149949 -15.826354 90.800284 -10.352341 -10.481138 -34.831464 -9.268873 1.822233 0.030529 11.580351 -16.558193 -0.011248 173.681304 -74.403354 172.133998 -20.954057 -17.820690 32.677253 6.970709 -20.746628 -0.540326 -42.901404 72.329242 -46.473831 3.991773 -13.522607 12.147561 -0.004697 -0.017420 0.001462 -9.619072 -18.204835 9.023141 54.362680 81.554773 55.838044 0.016382 -18.113549 -22.617761 0.009811 0.010558 -0.003341
-229.680021 57.673587 23.609470 174.001974 -51.268492 -2.671313 3.541923 22.777626 3.428866 1.810406 13.039738 1.759094 2.345460 16.287551 2.280338 1.818328 13.038168 1.758871 1.469039 19.191925 2.864849 1.804690 -0.158207 4.777512 3.161749 2.019339 0.414760 1.466670 -15.889045 -11.200642 -27.148762 -15.835101 90.798544 -10.355292 -10.479179 -34.829750 -9.284557 1.840228 0.032253 11.606429 -16.554575 -0.014070 173.601058 -74.401325 172.195423 -20.874198 -17.799968 32.620200 6.972673 -20.755721 -0.544669 -42.912582 72.334948 -46.487367 3.987761 -13.530371 12.151127 -0.003450 -0.017279 0.001037 -9.619057 -18.215192 9.020046 54.347372 81.556752 55.823832 0.022808 -18.111890 -22.618811 0.005047 0.010586 -0.001610
-229.680261 57.673429 23.608362 173.993713 -51.255851 -2.665119 3.539175 22.772626 3.426942 1.810502 13.036321 1.757396 2.340572 16.286187 2.278623 1.823044 13.035002 1.755544 1.451304 19.193446 2.860605 1.785447 -0.156320 4.767808 3.172713 2.031392 0.409473 1.458122 -15.891672 -11.193583 -27.148168 -15.835781 90.791541 -10.365717 -10.468924 -34.823751 -9.285200 1.846183 0.031544 11.616637 -16.544641 -0.012216 173.416326 -74.427093 172.325006 -20.848451 -17.798043 32.611995 6.979672 -20.768564 -0.545140 -42.920741 72.336400 -46.496413 3.991508 -13.534267 12.151397 -0.006184 -0.017753 0.001711 -9.614928 -18.227601 9.022477 54.345100 81.557214 55.821870 0.026227 -18.111633 -22.620647 0.011332 0.010230 0.001078
-229.681282 57.673545 23.606651 173.989599 -51.244984 -2.657697 3.537596 22.763866 3.421749 1.809740 13.035897 1.756779 2.334459 16.286750 2.278635 1.816316 13.034704 1.753268 1.442521 19.192897 2.853254 1.784964 -0.155773 4.760998 3.188324 2.041674 0.399823 1.453907 -15.898622 -11.186712 -27.144836 -15.829630 90.783348 -10.379221 -10.457888 -34.820221 -9.273096 1.846255 0.027705 11.619834 -16.541149 -0.011492 173.203821 -74.459661 172.475844 -20.818348 -17.793433 32.599796 6.986870 -20.778676 -0.548533 -42.934715 72.336468 -46.511709 3.990647 -13.537389 12.150501 -0.011936 -0.019499 0.002544 -9.614460 -18.239125 9.019712 54.361292 81.559680 55.834079 0.028701 -18.113478 -22.619506 0.009312 0.010262 0.002148
-229.682217 57.671329 23.606625 173.990452 -51.215762 -2.656707 3.527376 22.744570 3.418259 1.807492 13.032930 1.754984 2.339215 16.281511 2.275240 1.800285 13.036924 1.758275 1.438057 19.192516 2.838509 1.782481 -0.157623 4.755433 3.206521 2.045794 0.385527 1.447999 -15.898512 -11.176689 -27.135261 -15.817637 90.770977 -10.385709 -10.450922 -34.812818 -9.265600 1.843976 0.018786 11.633518 -16.526858 -0.005266 172.959549 -74.472657 172.662806 -20.771036 -17.782880 32.565595 6.992866 -20.806099 -0.551443 -42.949244 72.331826 -46.522507 3.984500 -13.539077 12.150663 -0.016720 -0.016916 0.002988 -9.620456 -18.269578 9.021842 54.371909 81.563297 55.847295 0.034390 -18.115974 -22.626303 0.011050 0.010933 0.004089
-229.683712 57.671715 23.604197 173.994065 -51.206590 -2.654332 3.524034 22.754190 3.416239 1.804969 13.024900 1.753405 2.335198 16.278550 2.274178 1.794065 13.033572 1.757549 1.426619 19.191673 2.828506 1.764144 -0.158700 4.741533 3.216280 2.044634 0.378485 1.448993 -15.894030 -11.174536 -27.136192 -15.817685 90.769583 -10.384482 -10.450641 -34.810285 -9.283128 1.846811 0.021095 11.656467 -16.509314 0.000669 172.807924 -74.462719 172.793388 -20.666596 -17.769240 32.488372 6.995408 -20.815393 -0.556084 -42.952850 72.341404 -46.527205 3.959603 -13.539105 12.153084 -0.005754 -0.019859 0.005707 -9.623639 -18.279186 9.014162 54.389138 81.561142 55.866082 0.027923 -18.118033 -22.628348 0.008709 0.009730 0.005054
